<?xml version="1.0" standalone="yes"?>
<svg xmlns="http://www.w3.org/2000/svg" width="100" height="100" viewBox="28 12 60 60">
<g stroke="white">
 <path d="M80 43 L75.45141487453394 44.3031189035907 L75.23413567771364 46.03884310917128 L79.32114844713134 48.42297233031748 L78.67323765728999 50.52444315316471 L73.9532728656965 50.19326663433461 L73.15544456622767 51.75 L76.18056008878392 55.38818932928122 L74.85297774861752 57.141327413103866 L70.5309307040242 55.21580024766874 L69.24878316951444 56.40577775458212 L70.84712786723877 60.85920786493111 L69 62.05255888325765 L65.5971733626057 58.764928065123364 L63.985352508199206 59.4446208637534 L63.964142421490635 64.17614235823362 L61.82025990867247 64.66577056626858 L59.747084791319494 60.412572892365446 L58 60.5 L56.36179337834312 64.93892155655695 L54.17974009132753 64.66577056626858 L53.68627200997473 59.96000444658175 L52.0146474918008 59.4446208637534 L48.9570362311222 63.05554303116132 L47.00000000000001 62.05255888325765 L48.14575848807176 57.46180916153267 L46.75121683048556 56.40577775458212 L42.64299397435929 58.75317002791613 L41.14702225138248 57.14132741310386 L43.79381192562299 53.21930625803084 L42.84455543377232 51.75 L38.181233289559195 52.55073222727574 L37.32676234271001 50.524443153164704 L41.155341305950536 47.744204198913 L40.76586432228636 46.03884310917128 L36.109908363883434 45.19633516623021 L36 42.99999999999999 L40.54858512546606 41.6968810964093 L40.76586432228636 39.96115689082872 L36.678851552868664 37.577027669682515 L37.32676234271001 35.47555684683528 L42.046727134303495 35.80673336566539 L42.84455543377233 34.25 L39.81943991121608 30.611810670718775 L41.14702225138249 28.858672586896127 L45.46906929597581 30.784199752331258 L46.75121683048556 29.59422224541789 L45.152872132761225 25.140792135068896 L46.999999999999986 23.947441116742354 L50.40282663739429 27.235071934876636 L52.01464749180079 26.555379136246607 L52.03585757850936 21.823857641766388 L54.17974009132752 21.334229433731426 L56.25291520868051 25.587427107634547 L58 25.5 L59.63820662165688 21.061078443443044 L61.82025990867246 21.334229433731423 L62.313727990025264 26.039995553418255 L63.98535250819919 26.5553791362466 L67.04296376887778 22.944456968838676 L68.99999999999999 23.94744111674234 L67.85424151192825 28.538190838467337 L69.24878316951444 29.594222245417882 L73.3570060256407 27.24682997208387 L74.85297774861752 28.858672586896127 L72.20618807437701 32.78069374196916 L73.15544456622767 34.24999999999999 L77.8187667104408 33.449267772724255 L78.67323765728997 35.475556846835275 L74.84465869404946 38.25579580108699 L75.23413567771364 39.961156890828704 L79.89009163611657 40.803664833769766 L80 42.99999999999997 Z" fill="none"></path>

 <circle cx="58" cy="43" r="13" fill="none"></circle>

</g>
</svg>